<svg id="Layer_1" data-name="Layer 1" xmlns="http://www.w3.org/2000/svg" viewBox="0 0 638.84 70.06"><path d="M17.08,3.11c12.09,0,19.69,5.36,19.69,17.52a17.36,17.36,0,0,1-8,14.69l10,19.91H28.52c-2.9-5.79-5.65-11.58-8.62-17.38-.94,0-2.46.08-4.19.08H9.12v17.3H0V3.11ZM9.12,30H18c6.81,0,9.41-5.14,9.41-9.7A9.14,9.14,0,0,0,17.81,11H9.12Z" style="fill:#07898b"/><path d="M54.29,15.71V42.78c0,3.4,1.45,5.28,5.21,5.28,3.26,0,7.6-1.74,11.51-3.91V15.71h8.9V55.23H72.39l-.73-4.35h-.29C66.23,54,61.31,56.09,56.9,56.09c-7.17,0-11.51-3.61-11.51-11.58V15.71Z" style="fill:#07898b"/><path d="M89.76,53.85V0h8.91V18.82c4.2-2.46,8.32-4,13-4,7.53,0,14.48,5.43,14.48,19.69,0,16.5-9.7,21.56-21,21.56A58.63,58.63,0,0,1,89.76,53.85Zm18.9-31.2c-2.61,0-6.09,1.09-10,3.33V48a32.65,32.65,0,0,0,6.66.72c8.1,0,11.65-4.27,11.65-13.68C117,26.64,114.08,22.65,108.66,22.65Z" style="fill:#07898b"/><path d="M143,10.35h-9.12V1.52H143ZM143,55.23h-8.9V15.71H143Z" style="fill:#07898b"/><path d="M178.59,55.23V28.16c0-3.41-1.45-5.29-5.29-5.29-3.26,0-7.53,1.81-11.51,4V55.23H153V15.71h8.25v4.41h.29c5.07-3,10.06-5.28,14.48-5.28,7.16,0,11.43,3.62,11.43,11.65V55.23Z" style="fill:#07898b"/><path d="M237.22,2.24c16.21,0,23.67,9.92,23.67,26.93s-7.46,26.92-23.67,26.92-23.67-9.91-23.67-26.92S221,2.24,237.22,2.24Zm.07,7.89c-9.41,0-14.4,5.94-14.4,19s5,19,14.26,19,14.4-5.94,14.4-19S246.56,10.13,237.29,10.13Z" style="fill:#fff"/><path d="M268.93,53.85V0h8.9V18.82c4.2-2.46,8.33-4,13-4,7.53,0,14.48,5.43,14.48,19.69,0,16.5-9.7,21.56-21,21.56A58.5,58.5,0,0,1,268.93,53.85Zm18.89-31.2c-2.6,0-6.08,1.09-10,3.33V48a32.65,32.65,0,0,0,6.66.72c8.11,0,11.66-4.27,11.66-13.68C296.15,26.64,293.25,22.65,287.82,22.65Z" style="fill:#fff"/><path d="M332.41,43.5c0-3.55-3.76-4-8.75-4.85-5.65-.87-12.31-2.75-12.31-11.43,0-9.2,6.95-12.38,16.43-12.38a75.07,75.07,0,0,1,11.66,1l-.29,7.67a70.62,70.62,0,0,0-10.35-1.08c-5.94,0-8.33,1.37-8.33,4.34,0,3.26,3.33,3.91,8,4.63,6.08,1,13,2.39,13,11.73,0,8.61-5.65,13-16.36,13a130.39,130.39,0,0,1-13.54-.86l.29-7.89a103.78,103.78,0,0,0,12.81,1.23C330,48.57,332.41,46.83,332.41,43.5Z" style="fill:#fff"/><path d="M382.22,53.56a51.17,51.17,0,0,1-15.49,2.53c-12.88,0-19.69-6.36-19.69-20.62,0-13.76,7-20.63,18.75-20.63,13.82,0,17.15,9.12,17.15,19v4.05H356.38c.07,7.6,4.63,10.5,12.45,10.5a50.41,50.41,0,0,0,13.39-2.46ZM373.9,31.41c-.08-4.34-1.31-9.55-8.62-9.55-6,0-9,4.27-9,9.55Z" style="fill:#fff"/><path d="M414.43,24.68c-5.21.8-9.26,2.61-14.55,4.92V55.23h-8.83V15.71h8.4v6.66c4.27-2.75,8.76-6.52,15-6.88Z" style="fill:#fff"/><path d="M426.16,15.71l9.34,29.82h.43l9.34-29.82h9.34L441.29,55.3H429.93L416.75,15.71Z" style="fill:#fff"/><path d="M482.05,31.27v-3c0-3.62-2.18-6.08-8.62-6.08A53.44,53.44,0,0,0,460.48,24V16.5a81.91,81.91,0,0,1,15-1.66c9.63,0,15.42,4.7,15.42,14V55.23h-7.6l-.65-4.42h-.29c-4.27,3.11-8.69,4.92-13,4.92-6.73,0-12.3-4-12.3-12.23,0-7.6,5.5-12.23,14.76-12.23Zm0,6.29h-8.84c-4.84,0-7.09,1.89-7.09,5.29,0,3.69,2.61,5.5,6.22,5.5a17.69,17.69,0,0,0,9.71-3.4Z" style="fill:#fff"/><path d="M511.22,43.86c0,3.33,2.39,4.35,4.92,4.35a21.36,21.36,0,0,0,5.65-1v7.6A60.36,60.36,0,0,1,511.65,56c-4.92,0-9.33-1.59-9.33-9.12V23.31h-5.14v-5.5L508.4,7h2.89v8.76h12v7.53H511.22Z" style="fill:#fff"/><path d="M547.27,14.84c10.86,0,19.91,6.08,19.91,20.63s-9,20.62-19.91,20.62-19.83-5.93-19.83-20.62S536.41,14.84,547.27,14.84Zm.07,33.65c7.53,0,10.64-4.84,10.64-13s-3.11-13-10.64-13-10.78,4.85-10.78,13S539.74,48.49,547.34,48.49Z" style="fill:#fff"/><path d="M598.38,24.68c-5.22.8-9.27,2.61-14.55,4.92V55.23H575V15.71h8.39v6.66c4.27-2.75,8.76-6.52,15-6.88Z" style="fill:#fff"/><path d="M612.28,70.06l4.92-14.83h-3.76q-6.3-19.77-12.74-39.52h9.69c3.05,9.91,6,20,9.05,30h.66c3.11-10,6.15-20,9.26-30h9.48l-17.3,54.35Z" style="fill:#fff"/></svg>